<?xml version="1.0" encoding="utf-8"?>
<!-- Generator: Adobe Illustrator 16.0.0, SVG Export Plug-In . SVG Version: 6.00 Build 0)  -->
<!DOCTYPE svg PUBLIC "-//W3C//DTD SVG 1.1//EN" "http://www.w3.org/Graphics/SVG/1.1/DTD/svg11.dtd">
<svg version="1.1" id="Layer_1" xmlns="http://www.w3.org/2000/svg" xmlns:xlink="http://www.w3.org/1999/xlink" x="0px" y="0px"
	 width="1200px" height="2000px" viewBox="0 0 1200 2000" enable-background="new 0 0 1200 2000" xml:space="preserve">
<g>
	<polygon fill="#EDB50C" points="638.165,135.53 637.929,135.53 636.032,149.374 632.239,173.53 644.685,173.53 640.181,149.374 	
		"/>
	<path fill="#EDB50C" d="M696.6,127.53H694v23.859l3.195,0.119c8.061,0,11.318-5.47,11.318-12.819
		C708.514,132.289,705.489,127.53,696.6,127.53z"/>
	<path fill="#EDB50C" d="M0-1.47v2001h1200v-2001H0z M279,202.53h-18v-38h-18v38h-17v-90h17v35h18v-35h18V202.53z M309,202.53h-18
		v-90h18V202.53z M323.36,219.53h-11.853l11.853-36h17.898L323.36,219.53z M397,202.53h-17v-90h17V202.53z M418.655,149.53h-11.854
		l11.854-37h17.779L418.655,149.53z M504.231,202.53l-4.267-65h-0.237l-2.845,22.365l-7.586,42.635h-13.631l-8.678-42.876
		L464,139.655v-2.125h-0.187l-2.608,65H442.24l7.823-90h23.232l8.653,53h0.237l7.112-53h23.706l9.364,90H504.231z M605,129.817
		c-2-0.593-4.397-0.948-6.648-0.948c-15.528,0-22.289,14.105-22.289,27.854c0,13.275,6.764,29.633,22.173,29.633
		c2.252,0,4.764-0.593,6.764-1.304v16.712c-3,1.067-5.345,1.541-8.189,1.541c-25.484,0-39.595-22.995-39.595-46.464
		c0-22.165,14.707-44.923,38.768-44.923c3.082,0,6.016,0.592,9.016,1.659V129.817z M650.611,202.53l-3.319-15h-17.897l-3.201,15
		h-17.542l20.743-90h18.609l21.453,90H650.611z M709.994,202.53l-15.527-41H694v41h-17v-90h17.348
		c11.261,0,31.41,1.413,31.41,25.831c0,9.838-3.911,18.454-12.683,23.313l15.528,40.856H709.994z M797.823,202.53l-4.268-65h-0.237
		l-2.844,22.365l-7.586,42.635h-13.632l-8.474-42.876L758,139.655v-2.125h-0.596l-2.607,65h-18.965l7.822-90h23.232l8.652,53h0.237
		l7.112-53h23.705l9.364,90H797.823z M861,202.53h-36v-90h36v17h-18v19h15v17h-15v20h18V202.53z M929.862,202.53l-4.268-65h-0.237
		l-2.844,22.365l-7.586,42.635h-13.632l-8.493-42.876L890,139.655v-2.125h-0.557l-2.607,65h-18.965l7.822-90h23.232l8.652,53h0.237
		l7.112-53h23.705l9.364,90H929.862z M965.181,203.78c-6.282,0-11.261-5.097-11.261-11.26s4.979-11.26,11.261-11.26
		s11.26,5.097,11.26,11.26S971.463,203.78,965.181,203.78z"/>
</g>
</svg>
